<svg width="1862" height="440" viewBox="0 0 1862 440" fill="none" xmlns="http://www.w3.org/2000/svg">
<rect x="48" y="40" width="360" height="360" rx="20" fill="#432dd7"/>
<path d="M92.536 314L161.912 131.728H214.136L282.744 314H229.496L178.552 159.12H196.984L144.76 314H92.536ZM137.592 283.28V243.344H239.48V283.28H137.592ZM297.354 314V131.728H348.554V314H297.354Z" fill="white"/>
<path d="M512.472 245.392V208.528H545.496C549.421 208.528 553.005 207.76 556.248 206.224C559.661 204.517 562.392 202.043 564.44 198.8C566.488 195.387 567.512 191.205 567.512 186.256C567.512 181.307 566.488 177.211 564.44 173.968C562.392 170.555 559.661 168.08 556.248 166.544C553.005 164.837 549.421 163.984 545.496 163.984H512.472V127.12H555.48C567.256 127.12 577.837 129.509 587.224 134.288C596.781 138.896 604.291 145.637 609.752 154.512C615.384 163.216 618.2 173.797 618.2 186.256C618.2 198.544 615.384 209.125 609.752 218C604.291 226.875 596.781 233.701 587.224 238.48C577.837 243.088 567.256 245.392 555.48 245.392H512.472ZM471 309.392V127.12H522.2V309.392H471Z" fill="currentColor"/>
<path d="M634.928 309.392V183.44H685.104V309.392H634.928ZM685.104 241.296L661.808 220.56C668.293 206.907 675.803 196.923 684.336 190.608C693.04 184.123 703.877 180.88 716.848 180.88C722.651 180.88 727.6 181.563 731.696 182.928C735.963 184.293 739.376 186.256 741.936 188.816L713.776 228.752C712.581 227.387 710.789 226.277 708.4 225.424C706.181 224.4 703.536 223.888 700.464 223.888C695.344 223.888 691.504 225.424 688.944 228.496C686.384 231.397 685.104 235.664 685.104 241.296Z" fill="currentColor"/>
<path d="M808.916 312.464C795.092 312.464 782.719 309.648 771.796 304.016C761.044 298.213 752.511 290.277 746.196 280.208C740.052 270.139 736.98 258.789 736.98 246.16C736.98 233.531 740.052 222.267 746.196 212.368C752.34 202.469 760.788 194.704 771.54 189.072C782.463 183.269 794.836 180.368 808.66 180.368C822.484 180.368 834.772 183.269 845.524 189.072C856.276 194.704 864.724 202.469 870.868 212.368C877.183 222.267 880.34 233.531 880.34 246.16C880.34 258.789 877.268 270.139 871.124 280.208C864.98 290.277 856.532 298.213 845.78 304.016C835.028 309.648 822.74 312.464 808.916 312.464ZM808.66 268.432C812.927 268.432 816.596 267.579 819.668 265.872C822.911 263.995 825.385 261.435 827.092 258.192C828.799 254.779 829.652 250.853 829.652 246.416C829.652 241.979 828.713 238.139 826.836 234.896C825.129 231.483 822.74 228.923 819.668 227.216C816.596 225.339 812.927 224.4 808.66 224.4C804.564 224.4 800.895 225.339 797.652 227.216C794.58 229.093 792.105 231.739 790.228 235.152C788.521 238.395 787.668 242.235 787.668 246.672C787.668 250.939 788.521 254.779 790.228 258.192C792.105 261.435 794.58 263.995 797.652 265.872C800.895 267.579 804.564 268.432 808.66 268.432Z" fill="currentColor"/>
<path d="M968.96 309.392L944.64 264.848L932.864 258.448L882.688 183.44H940.032L964.608 228.496L976.128 234.384L1025.79 309.392H968.96ZM880.128 309.392L932.352 233.616L960.512 263.568L932.864 309.392H880.128ZM973.056 258.448L944.896 228.496L970.496 183.44H1023.23L973.056 258.448Z" fill="currentColor"/>
<path d="M1069.04 309.392L1019.38 183.44H1072.63L1101.81 290.704H1079.79L1108.47 183.44H1161.46L1112.05 309.392H1069.04ZM1041.65 363.152L1078.26 280.464L1112.05 309.392L1090.8 363.152H1041.65Z" fill="currentColor"/>
<path d="M1280.63 312.464C1265.1 312.464 1251.53 310.245 1239.93 305.808C1228.49 301.2 1217.91 293.947 1208.18 284.048L1240.18 252.048C1246.84 258.363 1253.84 263.227 1261.17 266.64C1268.51 269.883 1276.36 271.504 1284.73 271.504C1291.72 271.504 1297.01 270.48 1300.6 268.432C1304.18 266.213 1305.97 263.227 1305.97 259.472C1305.97 255.717 1304.44 252.645 1301.37 250.256C1298.29 247.696 1294.2 245.477 1289.08 243.6C1284.13 241.552 1278.58 239.504 1272.44 237.456C1266.46 235.408 1260.49 232.933 1254.52 230.032C1248.54 227.131 1243 223.632 1237.88 219.536C1232.93 215.269 1228.92 210.064 1225.85 203.92C1222.77 197.605 1221.24 189.925 1221.24 180.88C1221.24 169.104 1224.05 158.949 1229.69 150.416C1235.32 141.883 1243.25 135.397 1253.49 130.96C1263.73 126.352 1275.77 124.048 1289.59 124.048C1303.24 124.048 1315.87 126.267 1327.48 130.704C1339.25 134.971 1348.98 141.115 1356.66 149.136L1324.41 181.136C1318.77 175.675 1313.14 171.664 1307.51 169.104C1301.88 166.373 1295.73 165.008 1289.08 165.008C1283.79 165.008 1279.52 165.861 1276.28 167.568C1273.21 169.275 1271.67 171.835 1271.67 175.248C1271.67 178.832 1273.21 181.819 1276.28 184.208C1279.35 186.427 1283.36 188.475 1288.31 190.352C1293.43 192.229 1298.98 194.192 1304.95 196.24C1311.09 198.288 1317.15 200.763 1323.13 203.664C1329.1 206.395 1334.56 209.979 1339.51 214.416C1344.63 218.683 1348.73 224.059 1351.8 230.544C1354.87 237.029 1356.41 244.88 1356.41 254.096C1356.41 272.699 1349.75 287.12 1336.44 297.36C1323.3 307.429 1304.69 312.464 1280.63 312.464Z" fill="currentColor"/>
<path d="M1454.81 309.392V238.736C1454.81 233.787 1453.36 230.032 1450.45 227.472C1447.72 224.741 1444.22 223.376 1439.96 223.376C1437.06 223.376 1434.41 223.973 1432.02 225.168C1429.8 226.363 1428.01 228.155 1426.65 230.544C1425.45 232.763 1424.85 235.493 1424.85 238.736L1405.4 230.032C1405.4 219.792 1407.45 211.003 1411.54 203.664C1415.81 196.325 1421.61 190.693 1428.95 186.768C1436.46 182.843 1445.16 180.88 1455.06 180.88C1465.3 180.88 1474.18 182.928 1481.69 187.024C1489.2 190.949 1494.91 196.411 1498.84 203.408C1502.93 210.235 1504.98 218.171 1504.98 227.216V309.392H1454.81ZM1374.68 309.392V122H1424.85V309.392H1374.68Z" fill="currentColor"/>
<path d="M1589.92 312.464C1576.09 312.464 1563.72 309.648 1552.8 304.016C1542.04 298.213 1533.51 290.277 1527.2 280.208C1521.05 270.139 1517.98 258.789 1517.98 246.16C1517.98 233.531 1521.05 222.267 1527.2 212.368C1533.34 202.469 1541.79 194.704 1552.54 189.072C1563.46 183.269 1575.84 180.368 1589.66 180.368C1603.48 180.368 1615.77 183.269 1626.52 189.072C1637.28 194.704 1645.72 202.469 1651.87 212.368C1658.18 222.267 1661.34 233.531 1661.34 246.16C1661.34 258.789 1658.27 270.139 1652.12 280.208C1645.98 290.277 1637.53 298.213 1626.78 304.016C1616.03 309.648 1603.74 312.464 1589.92 312.464ZM1589.66 268.432C1593.93 268.432 1597.6 267.579 1600.67 265.872C1603.91 263.995 1606.39 261.435 1608.09 258.192C1609.8 254.779 1610.65 250.853 1610.65 246.416C1610.65 241.979 1609.71 238.139 1607.84 234.896C1606.13 231.483 1603.74 228.923 1600.67 227.216C1597.6 225.339 1593.93 224.4 1589.66 224.4C1585.56 224.4 1581.89 225.339 1578.65 227.216C1575.58 229.093 1573.11 231.739 1571.23 235.152C1569.52 238.395 1568.67 242.235 1568.67 246.672C1568.67 250.939 1569.52 254.779 1571.23 258.192C1573.11 261.435 1575.58 263.995 1578.65 265.872C1581.89 267.579 1585.56 268.432 1589.66 268.432Z" fill="currentColor"/>
<path d="M1754.5 311.952C1746.99 311.952 1739.9 310.757 1733.25 308.368C1726.59 305.808 1720.96 302.309 1716.35 297.872C1711.74 293.435 1708.76 288.315 1707.39 282.512V212.88C1708.76 207.077 1711.74 201.787 1716.35 197.008C1720.96 192.059 1726.59 188.133 1733.25 185.232C1739.9 182.331 1746.99 180.88 1754.5 180.88C1766.95 180.88 1777.79 183.696 1787.01 189.328C1796.39 194.789 1803.65 202.469 1808.77 212.368C1814.06 222.267 1816.7 233.616 1816.7 246.416C1816.7 259.216 1814.06 270.565 1808.77 280.464C1803.65 290.192 1796.39 297.872 1787.01 303.504C1777.79 309.136 1766.95 311.952 1754.5 311.952ZM1676.93 363.152V183.44H1727.1V214.416L1718.91 244.88L1725.82 275.6V363.152H1676.93ZM1745.02 267.92C1749.12 267.92 1752.79 266.981 1756.03 265.104C1759.27 263.227 1761.75 260.667 1763.46 257.424C1765.33 254.181 1766.27 250.512 1766.27 246.416C1766.27 242.149 1765.33 238.48 1763.46 235.408C1761.75 232.165 1759.27 229.605 1756.03 227.728C1752.96 225.851 1749.38 224.912 1745.28 224.912C1741.18 224.912 1737.51 225.851 1734.27 227.728C1731.2 229.435 1728.73 231.909 1726.85 235.152C1725.14 238.395 1724.29 242.149 1724.29 246.416C1724.29 250.512 1725.14 254.181 1726.85 257.424C1728.55 260.667 1730.94 263.227 1734.02 265.104C1737.26 266.981 1740.93 267.92 1745.02 267.92Z" fill="currentColor"/>
</svg>
