<svg width="899" height="161" viewBox="0 0 899 161" fill="none" xmlns="http://www.w3.org/2000/svg">
<path d="M305.792 97.7854C305.792 89.933 305.792 82.0696 305.792 74.2173C305.792 69.5827 306.832 68.3417 311.441 67.2984C315.387 66.4088 317.411 64.1904 317.788 60.3356C318.131 56.8651 319.915 55.2727 323.54 55.2727C336.509 55.2727 349.477 55.2617 362.434 55.2727C365.945 55.2727 367.832 57.0299 367.97 60.2697C368.13 64.399 370.554 66.892 374.945 67.4521C379.234 68.0122 380.229 69.2972 380.149 74.2502C380.092 77.6657 378.525 79.1923 374.682 79.5876C371.16 79.9501 368.107 82.498 368.015 85.1557C367.912 88.099 370.806 91.0422 374.351 91.6023C379.28 92.3821 380.149 93.3595 380.149 98.1588C380.149 106.088 380.149 105.275 380.149 113.205C380.149 116.763 378.285 118.553 374.602 118.586C374.076 118.586 373.539 118.586 373.013 118.586C369.628 118.531 367.832 116.829 367.821 113.589C367.798 105.879 367.821 106.912 367.821 99.2021C367.821 94.6005 365.099 91.7122 360.319 91.6792C348.871 91.5913 337.424 91.5913 325.965 91.6792C321.082 91.7122 318.268 94.6005 318.246 99.268C318.223 106.758 318.211 105.506 318.257 113.007C318.268 115.302 317.742 117.466 315.364 118.18C312.802 118.959 309.794 119.454 307.599 117.51C306.512 116.543 305.918 114.588 305.883 113.073C305.723 105.078 305.803 105.813 305.803 97.8074L305.792 97.7854ZM342.684 67.4082C337.161 67.4082 331.626 67.3862 326.102 67.4302C324.901 67.4302 323.655 67.54 322.523 67.8914C318.04 69.2972 316.816 74.2173 320.03 77.501C321.802 79.3131 324.089 79.6206 326.48 79.6206C337.309 79.6206 348.139 79.6316 358.969 79.6096C360.09 79.6096 361.268 79.5217 362.332 79.2142C365.088 78.4345 367.055 76.6993 367.409 73.9207C367.718 71.4607 366.288 69.5168 364.07 68.4405C362.709 67.7816 361.039 67.4851 359.507 67.4521C353.903 67.3423 348.3 67.4082 342.696 67.4082H342.684Z" fill="white"/>
<path d="M543.814 118.728C537.375 118.728 530.925 118.728 524.487 118.728C520.713 118.728 519.272 117.487 518.803 113.94C518.208 109.382 516.104 107.361 511.244 106.681C508.339 106.274 506.738 104.671 506.727 101.859C506.692 89.1308 506.692 85.1442 506.727 72.4156C506.727 69.5383 508.236 68.0007 511.198 67.5834C516.138 66.8915 518.208 64.8598 518.826 60.1044C519.238 56.8646 520.976 55.371 524.418 55.371C537.387 55.36 550.344 55.36 563.312 55.371C566.834 55.371 568.767 57.1282 568.893 60.3351C569.064 64.5083 571.432 67.0892 575.812 67.5175C578.03 67.7372 580.02 68.3302 580.649 70.4498C581.37 72.8879 581.736 75.5676 580.043 77.808C577.916 80.6304 574.851 79.6091 572.106 79.038C569.865 78.5767 568.824 76.9294 568.653 74.711C568.298 70.0435 565.588 67.5614 560.728 67.5505C549.28 67.5065 537.833 67.5065 526.385 67.5505C522.074 67.5724 518.963 70.1862 519.123 73.4699C519.283 76.6988 521.845 79.2906 525.253 79.3345C533.43 79.4443 541.595 79.4773 549.772 79.4224C553.683 79.3894 556.107 81.2125 556.199 84.6061C556.336 89.7678 554.838 91.492 550.172 91.503C542.132 91.514 534.104 91.503 526.065 91.503C521.685 91.503 519.157 93.8861 519.112 98.1034C519.066 101.739 519.089 96.6317 519.112 100.267C519.112 103.276 521.079 105.736 524.132 106.417C525.299 106.681 526.534 106.757 527.735 106.757C538.267 106.779 548.811 106.79 559.344 106.757C565.599 106.757 567.955 104.715 568.687 98.8062C569.007 96.2693 570.688 94.7428 573.353 94.622C574.485 94.578 575.629 94.5561 576.761 94.6549C577.424 94.7098 578.122 94.8965 578.694 95.204C580.821 96.3132 581.655 99.2895 580.924 102.892C580.478 105.077 578.877 106.494 576.281 106.648C573.341 106.823 570.94 107.856 569.568 110.404C569.076 111.315 568.961 112.49 568.916 113.545C568.756 117.103 567.132 118.695 563.369 118.706C556.851 118.728 550.332 118.706 543.814 118.706V118.728Z" fill="white"/>
<path d="M495.816 97.3554C495.816 105.581 495.816 105.054 495.816 113.28C495.816 117.102 494.135 118.683 490.144 118.716C489.835 118.716 489.537 118.716 489.229 118.716C484.929 118.705 483.465 117.332 483.453 113.236C483.442 100.354 483.453 96.2242 483.453 83.3419C483.453 80.5085 483.671 77.6421 483.339 74.8416C483.122 72.9966 482.55 70.833 481.315 69.5152C478.09 66.0337 472.784 67.3956 471.285 71.8654C470.988 72.7549 471.114 73.8092 470.691 74.6219C469.959 76.0496 469.261 77.7739 468.003 78.6305C465.499 80.3218 464.39 82.3316 464.412 85.2089C464.481 93.4347 464.447 92.9076 464.435 101.133C464.435 105.109 462.651 106.734 458.397 106.745C453.926 106.756 452.096 105.175 452.084 101.177C452.061 92.9515 452.027 93.4786 452.107 85.2529C452.13 82.2766 450.987 80.212 448.379 78.5207C447.178 77.7409 446.504 76.0716 445.852 74.6878C445.177 73.2601 445.051 71.5798 444.262 70.229C442.993 68.0435 440.728 67.1649 438.235 67.6262C435.754 68.0984 434.107 69.7787 433.512 72.1509C433.181 73.4798 433.123 74.8855 433.123 76.2583C433.101 91.392 433.089 97.7837 433.123 112.917C433.123 115.059 433.055 117.508 430.722 118.057C428.297 118.639 425.496 118.474 423.037 117.914C422.03 117.684 420.887 115.531 420.875 114.246C420.738 97.1468 420.761 88.7892 420.807 71.7006C420.807 69.0978 422.659 67.4944 426.022 66.8135C430.973 65.8141 432.3 64.5182 433.226 59.7628C433.878 56.4132 435.857 55.2381 440.614 55.3918C443.725 55.4907 445.429 57.1271 445.772 60.3449C446.195 64.2876 448.185 66.7366 451.753 67.3516C453.274 67.6042 454.875 67.5054 456.43 67.4505C459.186 67.3626 461.988 67.4834 464.675 67.0112C468.575 66.3303 470.245 64.2656 470.771 60.3998C471.251 56.9184 472.795 55.4577 476.089 55.3918C480.937 55.282 482.687 56.4242 483.396 60.1143C484.243 64.5292 486.244 66.3083 490.933 66.8355C494.18 67.1979 495.793 68.8782 495.804 72.0301C495.827 80.4755 495.804 88.91 495.804 97.3554H495.816Z" fill="white"/>
<path d="M225 97.9182C225 89.9121 225 81.9059 225 73.9108C225 69.8034 226.269 68.3317 230.421 67.4861C234.469 66.6624 236.55 64.455 237.042 60.4903C237.5 56.7783 239.089 55.3945 242.977 55.3835C255.866 55.3835 268.766 55.3726 281.654 55.3835C285.165 55.3835 287.052 57.1078 287.235 60.3805C287.475 64.5868 289.819 67.0029 294.177 67.563C298.442 68.1121 299.391 69.3421 299.311 74.1853C299.243 77.8974 297.893 79.3141 294.085 79.6985C289.717 80.1378 287.418 82.455 287.235 86.6393C287.086 90.0658 285.302 91.7132 281.563 91.7241C270.184 91.7461 258.805 91.9548 247.438 91.6583C239.787 91.4606 237.019 86.6503 237.271 92.5918C237.557 99.3459 237.339 106.122 237.339 112.887C237.339 117.434 235.99 118.708 231.233 118.719C226.452 118.719 225 117.401 225 112.964C225 105.035 225 105.847 225 97.9182ZM261.87 67.541C256.415 67.541 250.948 67.519 245.493 67.563C244.293 67.563 243.046 67.6508 241.902 67.9803C237.179 69.3531 235.75 74.361 239.306 77.5679C240.53 78.6661 242.474 79.5886 244.11 79.6106C255.934 79.7863 267.759 79.7314 279.584 79.6765C280.671 79.6765 281.826 79.2702 282.844 78.8309C285.165 77.8315 286.675 75.9974 286.697 73.5923C286.72 71.1762 285.165 69.3092 282.866 68.3427C281.597 67.8046 280.087 67.5959 278.681 67.574C273.077 67.4861 267.462 67.541 261.858 67.541H261.87Z" fill="white"/>
<path d="M393.143 91.2204C393.143 81.1825 393.143 71.1447 393.143 61.1178C393.143 57.1531 394.985 55.385 399.079 55.363C403.87 55.3411 405.746 56.9006 405.757 61.0629C405.78 81.3473 405.78 92.8897 405.757 113.185C405.757 117.26 403.951 118.753 399.25 118.742C394.939 118.731 393.166 117.15 393.155 113.24C393.143 102.983 393.155 101.478 393.155 91.2204H393.143Z" fill="white"/>
<path d="M592.198 118.809L593.159 115.657C596.567 115.471 599.06 114.91 600.638 113.988C602.216 113.065 603.487 110.957 604.447 107.684L616.706 66.5222C617.152 65.1604 617.382 63.9853 617.382 62.9969C617.382 61.3276 616.798 60.2513 615.643 59.7571C614.488 59.2629 612.612 58.9883 610.039 58.9224L611 55.7705H637.749L636.789 58.9224C633.118 58.9883 630.635 59.5375 629.354 60.5918C628.062 61.6461 626.976 63.6558 626.073 66.6211L613.528 108.804C613.265 109.727 613.138 110.561 613.138 111.308C613.138 112.736 613.745 113.801 614.969 114.504C616.192 115.218 618.319 115.602 621.338 115.668L620.378 118.82H592.188L592.198 118.809Z" fill="white"/>
<path d="M662.29 119.638C660.552 119.638 659.157 119.154 658.093 118.199C657.03 117.244 656.504 115.893 656.504 114.168C656.504 112.258 657.281 109.6 658.825 106.195L665.778 90.5235C666.933 87.3056 667.517 85.0872 667.517 83.8462C667.517 81.9353 666.556 80.9688 664.623 80.9688C662.119 80.9688 659.157 83.0445 655.737 87.1848C652.33 91.3252 649.173 96.2233 646.28 101.879C643.387 107.535 640.939 113.18 638.938 118.803H631.505L641.545 86.8114C642.186 84.7687 642.506 83.2861 642.506 82.3636C642.506 81.4411 642.06 80.9688 641.157 80.9688C639.487 80.9688 637.257 83.374 634.489 88.1952L631.402 87.2727C635.782 78.2452 640.539 73.7314 645.685 73.7314C647.355 73.7314 648.659 74.1598 649.596 75.0274C650.534 75.895 650.992 77.125 650.992 78.7394C650.992 80.5295 650.477 82.715 649.448 85.2739C648.418 87.8438 646.131 93.0165 642.597 100.803H643.947C648.899 90.9737 653.21 84.0109 656.881 79.8925C660.552 75.7851 664.349 73.7314 668.271 73.7314C670.844 73.7314 672.846 74.3245 674.252 75.4886C675.671 76.6637 676.38 78.366 676.38 80.5844C676.38 83.1763 675.602 86.1195 674.058 89.3923L666.716 106.272C665.618 108.622 665.069 110.171 665.069 110.907C665.069 111.895 665.55 112.389 666.522 112.389C668.191 112.389 670.479 109.951 673.372 105.064L676.46 105.987C672.148 115.069 667.414 119.616 662.267 119.616L662.29 119.638Z" fill="white"/>
<path d="M700.131 80.9873L689.312 108.432C688.924 109.355 688.729 110.189 688.729 110.936C688.729 111.925 689.21 112.419 690.182 112.419C692.503 112.419 695.717 109.673 699.834 104.171L702.831 105.006C697.616 114.769 691.954 119.656 685.836 119.656C684.292 119.656 682.908 119.195 681.685 118.261C680.461 117.339 679.855 115.977 679.855 114.187C679.855 112.21 680.496 109.739 681.789 106.774L692.698 80.9983H683.526L684.875 76.5505H694.242L697.524 67.6548L707.084 66.908L702.258 76.5505H713.078L711.727 80.9983H700.143L700.131 80.9873Z" fill="white"/>
<path d="M745.514 81.2578C745.514 85.5848 742.758 89.4616 737.257 92.8991C731.757 96.3256 724.758 98.0718 716.261 98.1377C715.815 100.301 715.586 102.157 715.586 103.706C715.586 109.515 718.319 112.426 723.797 112.426C728.234 112.426 732.168 109.702 735.576 104.266L738.572 105.1C737.989 106.583 737.257 108.099 736.354 109.647C735.45 111.196 734.284 112.799 732.832 114.468C731.379 116.138 729.607 117.5 727.525 118.543C725.432 119.597 723.191 120.124 720.812 120.124C716.752 120.124 713.55 119.059 711.206 116.928C708.85 114.798 707.684 111.448 707.684 106.869C707.684 102.289 708.896 97.3799 711.309 92.317C713.722 87.2542 717.13 82.8942 721.544 79.248C725.947 75.6019 730.567 73.7788 735.405 73.7788C742.163 73.7788 745.537 76.2828 745.537 81.2907L745.514 81.2578ZM732.283 78.5671C729.515 78.5671 726.702 80.1596 723.831 83.3444C720.972 86.5293 718.765 90.3182 717.221 94.7002C722.882 94.0852 727.388 92.4708 730.739 89.8789C734.09 87.2871 735.759 84.6294 735.759 81.9057C735.759 79.6763 734.604 78.5671 732.283 78.5671Z" fill="white"/>
<path d="M749.659 119.641C747.795 119.641 746.365 119.147 745.359 118.158C744.364 117.17 743.861 115.808 743.861 114.084C743.861 111.986 744.57 108.988 745.988 105.089L760.088 65.0367C760.923 62.7523 761.083 61.083 760.569 60.0287C760.054 58.9744 758.796 58.3923 756.806 58.2715L753.044 57.997L753.718 55.4051L769.455 53H771.868L753.33 105.66C752.3 108.571 751.786 110.328 751.786 110.943C751.786 111.931 752.266 112.426 753.238 112.426C755.686 112.426 759.128 108.999 763.565 102.135L766.653 102.97C763.622 108.9 760.832 113.172 758.259 115.764C755.685 118.356 752.815 119.663 749.67 119.663L749.659 119.641Z" fill="white"/>
<path d="M774.958 119.641C773.094 119.641 771.665 119.147 770.659 118.158C769.664 117.17 769.16 115.808 769.16 114.084C769.16 111.986 769.869 108.988 771.288 105.089L785.388 65.0367C786.223 62.7523 786.383 61.083 785.868 60.0287C785.354 58.9744 784.096 58.3923 782.106 58.2715L778.344 57.997L779.018 55.4051L794.754 53H797.167L778.629 105.66C777.6 108.571 777.086 110.328 777.086 110.943C777.086 111.931 777.566 112.426 778.538 112.426C780.985 112.426 784.428 108.999 788.865 102.135L791.952 102.97C788.922 108.9 786.132 113.172 783.558 115.764C780.985 118.356 778.115 119.663 774.97 119.663L774.958 119.641Z" fill="white"/>
<path d="M830.856 81.2578C830.856 85.5848 828.1 89.4616 822.599 92.8991C817.098 96.3256 810.099 98.0718 801.602 98.1377C801.156 100.301 800.928 102.157 800.928 103.706C800.928 109.515 803.661 112.426 809.139 112.426C813.576 112.426 817.51 109.702 820.918 104.266L823.914 105.1C823.331 106.583 822.599 108.099 821.696 109.647C820.792 111.196 819.626 112.799 818.173 114.468C816.721 116.138 814.948 117.5 812.867 118.543C810.774 119.597 808.533 120.124 806.154 120.124C802.094 120.124 798.892 119.059 796.548 116.928C794.192 114.798 793.025 111.448 793.025 106.869C793.025 102.289 794.238 97.3799 796.651 92.317C799.064 87.2542 802.472 82.8942 806.886 79.248C811.289 75.6019 815.909 73.7788 820.746 73.7788C827.505 73.7788 830.879 76.2828 830.879 81.2907L830.856 81.2578ZM817.624 78.5671C814.857 78.5671 812.044 80.1596 809.173 83.3444C806.314 86.5293 804.107 90.3182 802.563 94.7002C808.224 94.0852 812.73 92.4708 816.08 89.8789C819.431 87.2871 821.101 84.6294 821.101 81.9057C821.101 79.6763 819.946 78.5671 817.624 78.5671Z" fill="white"/>
<path d="M841.964 120.1C838.099 120.1 835.023 119.034 832.747 116.904C830.46 114.773 829.316 111.446 829.316 106.932C829.316 102.418 830.471 97.4431 832.793 92.3802C835.114 87.3174 838.408 82.9354 842.685 79.2563C846.962 75.5772 851.491 73.7432 856.248 73.7432C859.599 73.7432 862.229 74.5449 864.162 76.1483C866.095 77.7517 867.055 79.7285 867.055 82.0788C867.055 83.9897 866.529 85.5382 865.465 86.7133C864.402 87.8884 862.972 88.4705 861.166 88.4705C858.467 88.4705 856.923 87.2624 856.534 84.8573C856.465 84.429 856.442 83.3088 856.442 81.5187C856.442 79.7285 856.214 78.3997 855.768 77.5321C850.873 77.598 846.562 80.5412 842.834 86.3839C839.105 92.2265 837.23 98.0471 837.23 103.857C837.23 109.666 839.803 112.39 844.949 112.39C849.329 112.39 853.218 109.644 856.637 104.142L859.633 104.977C858.993 106.525 858.238 108.052 857.369 109.568C856.5 111.083 855.356 112.687 853.938 114.389C852.52 116.091 850.77 117.464 848.677 118.518C846.585 119.573 844.343 120.1 841.964 120.1Z" fill="white"/>
<path d="M885.885 80.9873L875.066 108.432C874.678 109.355 874.483 110.189 874.483 110.936C874.483 111.925 874.964 112.419 875.936 112.419C878.257 112.419 881.471 109.673 885.588 104.171L888.584 105.006C883.369 114.769 877.708 119.656 871.59 119.656C870.046 119.656 868.662 119.195 867.439 118.261C866.215 117.339 865.609 115.977 865.609 114.187C865.609 112.21 866.249 109.739 867.542 106.774L878.452 80.9983H869.28L870.629 76.5505H879.995L883.278 67.6548L892.838 66.908L888.012 76.5505H898.831L897.481 80.9983H885.896L885.885 80.9873Z" fill="white"/>
<path d="M137.505 67.5078C137.309 67.5145 137.067 67.5228 136.751 67.5228L136.733 67.4977C135.845 67.6989 134.741 67.6265 133.612 67.5523C130.264 67.3325 126.693 67.0979 127.877 73.9459C128.141 75.4543 126.312 75.8251 125.099 75.8879C121.655 76.0765 118.199 76.1519 114.748 76.0828C114.095 76.072 113.427 75.5224 112.824 75.0256C112.72 74.9397 112.617 74.8553 112.517 74.7755C112.41 74.6875 112.812 73.55 113.02 73.5374C116.386 73.3409 117.607 71.0582 118.824 68.7823C119.437 67.6371 120.049 66.4937 120.932 65.6185C128.927 57.6933 137.091 49.919 146.43 43.5336C147.341 42.9114 148.454 42.3395 149.208 43.4205C149.789 44.2556 149.245 44.7287 148.687 45.2144C148.443 45.4269 148.196 45.6418 148.039 45.8904C147.475 46.7852 146.474 47.4447 145.48 48.1005C143.526 49.3884 141.593 50.6623 143.03 53.6773C144.276 56.2878 143.161 56.751 141.447 57.463L141.377 57.4922C140.644 57.7996 139.893 58.0788 139.144 58.3578C137.548 58.9516 135.955 59.5447 134.527 60.4084C133.094 61.2757 132.409 62.9663 134.753 63.9656C139.875 66.1464 153.136 62.6646 155.725 57.863C158.145 53.3702 161.761 50.0378 165.374 46.7079C167.402 44.8394 169.429 42.9717 171.243 40.9002C175.155 36.4377 179.735 32.5613 184.317 28.6828C186.595 26.7548 188.874 24.8263 191.071 22.825C192.724 21.3167 193.409 19.3307 192.115 17.1624C190.826 15.0067 188.639 14.7176 186.584 15.2015C173.04 18.3879 159.955 22.6868 148.334 30.7125C129.781 43.5273 111.197 56.2981 92.4621 68.8426C86.0767 73.1226 82.2115 71.0297 80.081 63.6199C75.3485 47.1662 68.41 32.8179 48.4745 30.5868C41.1904 29.7698 35.8483 34.3326 36.9041 41.5727C37.4383 45.243 36.9544 48.6997 35.1884 52.1438C34.799 52.9042 34.4059 53.6649 34.0124 54.4264C31.2931 59.6886 28.5503 64.996 26.8484 70.5961C26.706 71.0645 26.5429 71.5573 26.3748 72.0654C24.8575 76.6503 22.9286 82.4788 32.1339 82.8013C32.511 82.8138 33.2338 83.7628 33.1458 84.1148C32.9447 84.9507 32.5361 85.9437 31.8825 86.4276C23.0586 92.9324 15.8059 100.807 12.6886 111.46C11.1111 116.84 12.1544 122.427 16.7486 126.594C20.0356 129.573 24.2339 131.301 27.9168 128.794C31.2761 126.507 34.9625 124.973 38.6413 123.442C41.8795 122.094 45.1118 120.749 48.11 118.895C48.8327 118.448 49.7106 118.039 50.5989 117.625C53.0555 116.482 55.5921 115.3 55.149 113.163C54.4514 109.814 50.913 106.709 47.9654 104.27C45.043 101.851 37.5954 85.6043 38.4816 81.7014C39.7225 76.2359 42.5163 71.5039 45.3129 66.7673C47.7002 62.7238 50.0895 58.6769 51.5164 54.1675C52.1071 52.3072 54.3697 51.2891 56.5505 52.0307C58.0306 52.5322 57.7787 53.8908 57.544 55.1565C57.5376 55.1915 57.5311 55.2263 57.5247 55.2611C56.6405 60.1259 55.7732 64.9964 54.9058 69.8668C54.4722 72.3015 54.0386 74.7361 53.6029 77.17C53.3264 78.7287 53.8103 79.9731 55.4255 80.2873C58.5365 80.8969 58.4674 82.2985 57.0659 84.7056C55.5764 87.2572 55.369 90.3745 57.0345 92.7313C58.7062 95.1007 61.503 95.5972 64.3437 94.1768C66.116 93.2969 67.4924 94.0825 67.4736 95.8674C67.3604 105.402 71.3513 103.252 76.2095 99.0916C76.6563 98.7086 77.2652 98.4967 77.8533 98.292C77.96 98.2548 78.0661 98.2179 78.1704 98.1803C78.6313 98.0158 79.0927 97.8521 79.554 97.6884C88.699 94.4436 97.8321 91.2031 102.995 81.8397C103.394 81.1083 104.703 80.7539 105.722 80.4783C105.78 80.4626 105.837 80.4471 105.893 80.4319C111.797 78.8274 117.825 78.8035 123.849 78.7795C128.373 78.7615 132.894 78.7436 137.361 78.0562C141.767 77.3774 146.568 74.8069 146.606 70.5521C146.641 67.1217 144.015 67.3349 141.392 67.5479C140.257 67.6401 139.122 67.7322 138.203 67.5291C138.017 67.4903 137.821 67.497 137.505 67.5078Z" fill="white"/>
<path d="M68.1083 115.545C67.0147 122.823 69.7926 129.051 81.1619 128.97H81.1556C90.8657 128.574 101.852 122.697 112.586 115.181C119.675 110.216 125.803 104.98 129.775 97.2438C132.698 91.556 131.195 86.9932 126.79 83.0023C124.848 81.2426 122.994 81.0478 120.819 83.172C113.101 90.7264 103.492 94.8493 93.6247 98.9973C91.1104 100.055 88.2465 100.583 85.3623 101.115C77.6776 102.532 69.8494 103.975 68.1083 115.545Z" fill="white"/>
</svg>
