<svg width="36" height="38" viewBox="0 0 36 38" fill="none" xmlns="http://www.w3.org/2000/svg">
<mask id="mask0_2076_5502" style="mask-type:luminance" maskUnits="userSpaceOnUse" x="0" y="0" width="36" height="38">
<path d="M3.8147e-06 38L35.8467 38L35.8467 0L3.8147e-06 0L3.8147e-06 38Z" fill="white"/>
</mask>
<g mask="url(#mask0_2076_5502)">
<path d="M2.00431 20.2629C2.80754 20.2629 3.50195 19.785 3.82072 19.0991H17.3513V21.1519H9.00315L4.94772 24.0887C4.65857 23.9253 4.32491 23.8311 3.96907 23.8311C2.86433 23.8311 1.96479 24.7325 1.96479 25.8393C1.96479 26.9462 2.86433 27.8451 3.96907 27.8451C5.07373 27.8451 5.97326 26.9438 5.97326 25.8393C5.97326 25.7081 5.9609 25.5793 5.93619 25.4556L6.25996 25.2203L9.5493 22.8382H17.3537V26.2603H10.4044L6.12405 29.6948C5.8547 29.5611 5.55319 29.4818 5.23188 29.4818C4.12722 29.4819 3.22761 30.3832 3.22761 31.4876C3.22761 32.592 4.12722 33.4958 5.23188 33.4958C6.33654 33.4958 7.23615 32.5945 7.23615 31.4876C7.23615 31.3217 7.2139 31.1608 7.17684 31.0072L7.55992 30.7001L10.9975 27.9417H17.3563V36.086L12.3543 34.8652C12.1739 33.944 11.3608 33.2457 10.3896 33.2457C9.28486 33.2457 8.38532 34.1471 8.38532 35.2514C8.38532 36.3559 9.28486 37.2597 10.3896 37.2597C11.0222 37.2597 11.5882 36.9625 11.9539 36.502L17.9914 37.9753C18.0803 37.9927 18.1718 38.005 18.2682 37.9951L23.5444 37.5048C24.9111 37.3785 26.1147 36.5242 26.6855 35.2738L27.1328 34.2957C27.2861 33.9614 27.5554 33.6939 27.8916 33.5429L29.4065 32.8693C30.5952 32.3394 31.3613 31.1558 31.3613 29.8533V28.6746C31.3613 27.9467 31.7048 27.2508 32.2807 26.8075L34.4798 25.1213C35.3351 24.4651 35.8443 23.43 35.8443 22.3529V14.3348C35.8443 12.9804 35.1624 11.7397 34.0204 11.0167L28.1238 7.27516C27.6913 7.0003 27.4343 6.5323 27.4343 6.01972V5.35609C27.4343 3.92732 26.5224 2.6694 25.1656 2.22862L18.4436 0.0396538C18.3571 0.0124154 18.2706 -0.00244141 18.1841 -0.00244141C18.0927 -0.0024414 18.0013 0.0148941 17.9148 0.0421325L11.5412 2.19892C11.1754 1.81263 10.6614 1.57243 10.0905 1.57243C8.9858 1.57243 8.08627 2.47378 8.08627 3.58064C8.08627 4.68751 8.9858 5.58886 10.0905 5.58886C11.1211 5.58886 11.9736 4.8039 12.0824 3.79856L17.3439 2.01815V9.76129H11.2841L8.24197 8.13194L6.91239 7.41878C6.91239 7.38164 6.9173 7.34202 6.9173 7.30487C6.9173 6.19801 6.01777 5.29667 4.91311 5.29667C3.80837 5.29667 2.90884 6.19801 2.90884 7.30487C2.90884 8.41175 3.80837 9.31311 4.91311 9.31311C5.36533 9.31311 5.78049 9.15954 6.11661 8.90698L10.8616 11.45H17.3439V13.6266H11.7636L9.51224 13.3319L6.25251 12.3564C6.1117 11.3856 5.27885 10.6354 4.27303 10.6354C3.16829 10.6354 2.26875 11.5368 2.26875 12.6436C2.26875 13.7504 3.16829 14.6518 4.27303 14.6518C4.8686 14.6518 5.40485 14.3869 5.77067 13.9708L10.2536 15.3105H17.3414V17.4177H3.81336C3.49451 16.7319 2.80255 16.2539 1.99695 16.2539C0.892211 16.2539 -0.00732422 17.1552 -0.00732422 18.2621C-0.00732422 19.369 0.892211 20.2704 1.99695 20.2704L2.00431 20.2629ZM3.96653 26.7927C3.44018 26.7927 3.01512 26.3668 3.01512 25.8393C3.01512 25.312 3.44018 24.886 3.96653 24.886C4.49296 24.886 4.91802 25.312 4.91802 25.8393C4.91802 26.3668 4.49296 26.7927 3.96653 26.7927ZM5.22697 32.4435C4.70054 32.4435 4.27548 32.0175 4.27548 31.4901C4.27548 30.9627 4.70054 30.5368 5.22697 30.5368C5.75333 30.5368 6.17838 30.9627 6.17838 31.4901C6.17838 32.0175 5.75333 32.4435 5.22697 32.4435ZM10.3822 36.2073C9.85572 36.2073 9.43066 35.7814 9.43066 35.254C9.43066 34.7265 9.85572 34.3006 10.3822 34.3006C10.9085 34.3006 11.3336 34.7265 11.3336 35.254C11.3336 35.7814 10.9085 36.2073 10.3822 36.2073ZM10.0955 4.53646C9.5691 4.53646 9.14396 4.11055 9.14396 3.58312C9.14396 3.05568 9.5691 2.62978 10.0955 2.62978C10.6219 2.62978 11.0469 3.05568 11.0469 3.58312C11.0469 4.11055 10.6219 4.53646 10.0955 4.53646ZM4.91557 8.25819C4.38913 8.25819 3.96407 7.83231 3.96407 7.30487C3.96407 6.77745 4.38913 6.35153 4.91557 6.35153C5.44192 6.35153 5.86705 6.77745 5.86705 7.30487C5.86705 7.83231 5.44192 8.25819 4.91557 8.25819ZM4.27548 13.5945C3.74905 13.5945 3.32399 13.1686 3.32399 12.6411C3.32399 12.1137 3.74905 11.6878 4.27548 11.6878C4.80183 11.6878 5.22697 12.1137 5.22697 12.6411C5.22697 13.1686 4.80183 13.5945 4.27548 13.5945ZM25.7538 5.36105V5.87858C25.7143 5.90086 25.6773 5.92562 25.6426 5.95286L21.5798 9.25363C21.2189 9.54587 21.1645 10.0782 21.4562 10.4398C21.7478 10.8013 22.2766 10.8557 22.6399 10.5636L26.2111 7.66393C26.4606 8.07745 26.8042 8.43401 27.2268 8.70391L29.1791 9.94202L27.4121 11.6977C26.3593 12.7451 25.7538 14.1962 25.7538 15.6844V17.2394C25.7538 17.4475 25.7785 17.653 25.8205 17.8535L22.766 21.0478C21.943 21.9096 21.518 23.0387 21.5699 24.2298C21.6217 25.4209 22.1432 26.5104 23.0378 27.2954L26.043 29.9326C26.3915 30.2396 26.9228 30.2049 27.2292 29.8533C27.5356 29.5042 27.501 28.9718 27.1501 28.6647L24.145 26.0275C23.5988 25.5472 23.28 24.8835 23.2479 24.1555C23.2158 23.4275 23.4753 22.7367 23.9794 22.2117L26.6806 19.3888C26.7399 19.4457 26.7992 19.5027 26.8659 19.5547L29.9947 22.0755C30.3554 22.3677 30.8843 22.3083 31.1759 21.9467C31.4675 21.5852 31.4083 21.0528 31.0475 20.7631L27.9187 18.2423C27.6123 17.9972 27.4393 17.6307 27.4393 17.237V15.6819C27.4393 14.6419 27.8619 13.6242 28.5983 12.8937L30.6372 10.8682L33.1231 12.4455C33.7757 12.8591 34.1638 13.5672 34.1638 14.3398V17.346L31.3341 15.0678C31.1784 14.9415 30.993 14.8821 30.8077 14.8821C30.5605 14.8821 30.3184 14.9885 30.1528 15.1966C29.8612 15.5581 29.9205 16.0905 30.2813 16.3802L34.1638 19.5077V22.3578C34.1638 22.9149 33.8992 23.4498 33.4573 23.7891L31.2575 25.4754C31.0178 25.6586 30.8027 25.869 30.6125 26.0969L27.1205 23.2864C26.9648 23.1601 26.7795 23.1007 26.5941 23.1007C26.347 23.1007 26.1048 23.2071 25.9392 23.4152C25.6476 23.7767 25.7069 24.3091 26.0677 24.5988L29.8216 27.6223C29.7278 27.9639 29.6783 28.3206 29.6783 28.6796V29.8583C29.6783 30.4946 29.3026 31.0741 28.7219 31.3341L27.207 32.0076C26.4952 32.3246 25.9268 32.8892 25.603 33.5974L25.1558 34.5755C24.8345 35.2787 24.1574 35.7591 23.3887 35.8309L19.0293 36.2345V33.7385L22.6573 30.6308C23.0106 30.3287 23.0527 29.7963 22.7512 29.4422C22.5856 29.2466 22.3483 29.1476 22.1111 29.1476C21.9183 29.1476 21.7231 29.2145 21.565 29.3506L19.0293 31.5223V18.6534L23.6977 14.8078C24.0561 14.5131 24.1079 13.9807 23.8139 13.6217C23.6483 13.4187 23.4061 13.3147 23.1639 13.3147C22.976 13.3147 22.7858 13.3765 22.6301 13.5053L19.0293 16.4718V2.0033L24.6492 3.83322C25.3114 4.04865 25.7538 4.66028 25.7538 5.35857V5.36105ZM2.00186 17.3038C2.52821 17.3038 2.95335 17.7298 2.95335 18.2572C2.95335 18.7846 2.52821 19.2105 2.00186 19.2105C1.47542 19.2105 1.05037 18.7846 1.05037 18.2572C1.05037 17.7298 1.47542 17.3038 2.00186 17.3038Z" fill="black"/>
</g>
</svg>
